<?xml version="1.0" encoding="UTF-8" standalone="no"?>
<svg width="62px" height="51px" viewBox="0 0 62 51" version="1.1" xmlns="http://www.w3.org/2000/svg" xmlns:xlink="http://www.w3.org/1999/xlink" xmlns:sketch="http://www.bohemiancoding.com/sketch/ns">
    <!-- Generator: Sketch 3.0 (7574) - http://www.bohemiancoding.com/sketch -->
    <title>Slice 1</title>
    <description>Created with Sketch.</description>
    <defs></defs>
    <g id="Page-1" stroke="none" stroke-width="1" fill="none" fill-rule="evenodd" sketch:type="MSPage">
        <g id="#b9b9b9ff" sketch:type="MSLayerGroup" fill="#DCD24F">
            <path d="M0.99,45.98 C10.62,30.63 20.11,15.18 29.8,-0.13 C31.23,-0.07 32.95,-0.06 33.54,1.55 C42.84,16.51 52.15,31.47 61.47,46.42 C62.82,47.87 62.61,51.23 60.07,50.99 C41.38,51.03 22.68,50.97 3.98,51.02 C2.64,50.89 0.89,51.38 0.1,49.93 C-0.34,48.5 0.19,47.15 0.99,45.98 L0.99,45.98 Z M27.93,15.85 C28.16,22.26 27.81,28.68 28.09,35.08 C29.16,36.59 32.87,36.65 33.91,35.05 C34.19,28.66 33.83,22.26 34.08,15.86 C32.15,14.78 29.84,14.67 27.93,15.85 L27.93,15.85 Z M28.51,38.48 C27.45,39.63 28.05,41.51 28.07,42.94 C29.18,44.67 32.78,44.64 33.92,42.97 C33.93,41.37 34.74,39 32.96,38.08 C31.53,38.03 29.71,37.5 28.51,38.48 L28.51,38.48 Z" id="Shape" sketch:type="MSShapeGroup"></path>
        </g>
    </g>
</svg>